<?xml version="1.0" ?><svg id="Layer_1" style="enable-background:new 0 0 65 65;" version="1.1" viewBox="0 0 65 65" xml:space="preserve" xmlns="http://www.w3.org/2000/svg" xmlns:xlink="http://www.w3.org/1999/xlink"><style type="text/css">
	.st0{fill:#fffff;}
</style><g><path class="st0" d="M60.5,29c-0.6,0-1,0.4-1,1v16c0,0.6,0.4,1,1,1s1-0.4,1-1V30C61.5,29.4,61.1,29,60.5,29z" fill="white"/><path class="st0" d="M60.5,23c-0.6,0-1,0.4-1,1v2c0,0.6,0.4,1,1,1s1-0.4,1-1v-2C61.5,23.4,61.1,23,60.5,23z" fill="white"/><path class="st0" d="M5.5,9c0.6,0,1-0.4,1-1V1c0-0.6-0.4-1-1-1s-1,0.4-1,1v7C4.5,8.6,4.9,9,5.5,9z" fill="white"/><path class="st0" d="M5.5,15c0.6,0,1-0.4,1-1v-1c0-0.6-0.4-1-1-1s-1,0.4-1,1v1C4.5,14.6,4.9,15,5.5,15z" fill="white"/><path class="st0" d="M7.5,45h-1v-1c0-0.6-0.4-1-1-1s-1,0.4-1,1v1h-1c-0.6,0-1,0.4-1,1s0.4,1,1,1h1v1c0,0.6,0.4,1,1,1s1-0.4,1-1v-1   h1c0.6,0,1-0.4,1-1S8.1,45,7.5,45z" fill="white"/><path class="st0" d="M57.5,1h-36c3.3,0,6,2.7,6,6v7h35V7C62.5,3.7,60.8,1,57.5,1z" fill="white"/><path class="st0" d="M47.5,59v-7h-37v7c0,3.3,2.7,6,6,6h37C50.2,65,47.5,62.3,47.5,59z" fill="white"/><path class="st0" d="M26.4,32h-9.5l6.7,6.7C25.2,36.9,26.2,34.6,26.4,32z" fill="white"/><path class="st0" d="M15.5,19.1V30h10.9C26,24.2,21.3,19.5,15.5,19.1z" fill="white"/><path class="st0" d="M14.5,43c3,0,5.7-1.1,7.7-2.8l-8.5-8.5c-0.1-0.1-0.2-0.2-0.2-0.3c-0.1-0.1-0.1-0.3-0.1-0.4V19.1   c-6.2,0.5-11,5.7-11,11.9C2.5,37.6,7.9,43,14.5,43z" fill="white"/><path class="st0" d="M25.5,7c0-2.2-1.8-4-4-4s-4,1.8-4,4v10.3c6.3,1.4,11,7,11,13.7c0,7.7-6.3,14-14,14v5h35v9c0,2.2,1.8,4,4,4   s4-1.8,4-4V16h-32V7z M43.5,19h10c0.6,0,1,0.4,1,1s-0.4,1-1,1h-10c-0.6,0-1-0.4-1-1S42.9,19,43.5,19z M43.5,24h10c0.6,0,1,0.4,1,1   s-0.4,1-1,1h-10c-0.6,0-1-0.4-1-1S42.9,24,43.5,24z M33.5,29h20c0.6,0,1,0.4,1,1s-0.4,1-1,1h-20c-0.6,0-1-0.4-1-1S32.9,29,33.5,29z    M33.5,34h20c0.6,0,1,0.4,1,1s-0.4,1-1,1h-20c-0.6,0-1-0.4-1-1S32.9,34,33.5,34z M33.5,39h20c0.6,0,1,0.4,1,1s-0.4,1-1,1h-20   c-0.6,0-1-0.4-1-1S32.9,39,33.5,39z M33.5,44h20c0.6,0,1,0.4,1,1s-0.4,1-1,1h-20c-0.6,0-1-0.4-1-1S32.9,44,33.5,44z" fill="white"/></g></svg>